# xmcd CD database file
#
# Track frame offsets:
#	182
#	13407
#	27967
#	39967
#	57040
#	68760
#	80765
#	95980
#	109555
#	120277
#
# Disc length: 1816 seconds
#
# Revision: 1
# Processed by: cddbd v1.5.2PL0 Copyright (c) Steve Scherf et al.
# Submitted via: CDex 1.79
#
DISCID=7b07160a
DTITLE=Wayne Horsburgh - From Nashville To You
DYEAR=2006
DGENRE=Country
TTITLE0=Bouquet Of Roses
TTITLE1=Lovesong Of The Waterfall
TTITLE2=If You Ever Swing Through Texas
TTITLE3=Stars On The Sandias
TTITLE4=I Remember You
TTITLE5=Give Me A Pinto Pal
TTITLE6=Kinberley Moon
TTITLE7=My Little Lonely, One And Only
TTITLE8=Indian Love Call
TTITLE9=Anytime
EXTD=YEAR: 2006
EXTT0=
EXTT1=
EXTT2=
EXTT3=
EXTT4=
EXTT5=
EXTT6=
EXTT7=
EXTT8=
EXTT9=
PLAYORDER=
